<svg width="72" height="72" viewBox="0 0 72 72" fill="none" xmlns="http://www.w3.org/2000/svg">
<g clip-path="url(#clip0_260_7332)">
<path d="M72 67.0882C72 69.8009 69.8009 72 67.0882 72H4.91176C2.19907 72 0 69.8009 0 67.0882V4.91176C0 2.19907 2.19907 0 4.91177 0H67.0882C69.8009 0 72 2.19907 72 4.91177V67.0882ZM55.0671 55.3817C55.0661 55.3821 55.065 55.3824 55.0639 55.3824C54.2261 55.3824 53.69 55.3824 53.154 55.3824C41.8716 55.3824 30.5928 55.3824 19.3104 55.3824C16.3116 55.3824 15.588 54.666 15.588 51.6888C15.588 39.9888 15.588 28.2852 15.588 16.5852C15.588 15.0264 15.6492 13.4604 15.5484 11.9052C15.4116 9.7632 13.698 8.1108 11.5776 7.9272C9.522 7.7508 7.5564 9.1944 7.092 11.3004C6.9372 11.9952 6.9192 12.726 6.9192 13.4424C6.9084 27.0648 6.9048 40.6836 6.9156 54.306C6.9192 60.588 10.4544 64.1088 16.7436 64.1088C33.0048 64.1124 49.266 64.1088 65.5272 64.1088C65.5889 64.1088 65.6506 64.1088 65.7125 64.1088C66.6887 64.1088 67.4181 63.1345 67.0608 62.226V62.226C63.0828 52.002 59.112 41.778 55.098 31.5684C54.4608 29.9448 54.378 28.4688 55.368 26.9604C57.8988 23.0976 60.39 19.2096 62.8992 15.3324C62.9964 15.1812 63.0972 15.03 63.1908 14.8788C64.6308 12.564 64.17 10.152 62.0244 8.7768C59.9472 7.4484 57.3768 8.0424 55.9368 10.2852C53.4744 14.1192 51.3252 18.1872 48.582 21.8052C45.0216 26.5032 44.676 30.978 47.2644 36.3168C50.2083 42.3882 52.4219 48.8121 55.0704 55.3729C55.0717 55.3762 55.0703 55.38 55.0671 55.3817V55.3817ZM43.9776 27.4032C43.9789 27.4045 43.9812 27.4036 43.9812 27.4017C43.9812 22.4822 43.9668 17.5627 43.9884 12.6432C43.9992 10.6344 43.1712 9.144 41.3532 8.316C38.3184 6.93 35.154 9.1656 35.1468 12.7152C35.1216 21.8952 35.1396 31.0788 35.1324 40.2588C35.1324 40.914 35.1396 41.5908 34.9812 42.2208C34.6464 43.5492 33.7068 44.244 32.346 44.2116C30.9852 44.1828 30.0744 43.4592 29.8188 42.0984C29.6892 41.4 29.6964 40.6656 29.6964 39.9492C29.6892 30.9492 29.6964 21.9456 29.6856 12.9456C29.682 9.8784 27.9324 7.9092 25.2756 7.9092C22.6548 7.9092 20.844 9.9432 20.8404 12.9528C20.8296 22.4352 20.8224 31.914 20.8404 41.3964C20.8548 47.8908 25.9092 52.9092 32.3856 52.92C38.8728 52.9308 43.9344 47.934 43.9704 41.4432C43.9956 36.7649 43.974 32.0866 43.974 27.4047C43.974 27.4028 43.9763 27.4019 43.9776 27.4032V27.4032Z" fill="#387AF2"/>
<path d="M55.0655 55.3832C52.4159 48.8204 50.2019 42.3944 47.2571 36.3212C44.6687 30.986 45.0143 26.5076 48.5747 21.8096C51.3179 18.1916 53.4635 14.1236 55.9295 10.2896C57.3695 8.04676 59.9399 7.45276 62.0171 8.78116C64.1627 10.1528 64.6271 12.5684 63.1835 14.8832C63.0899 15.0344 62.9891 15.1856 62.8919 15.3368C60.3827 19.214 57.8915 23.102 55.3607 26.9648C54.3707 28.4732 54.4535 29.9528 55.0907 31.5728C59.1047 41.7824 63.0755 52.01 67.0535 62.2304C67.2623 62.7704 67.4279 63.3284 67.6943 64.1132C66.8123 64.1132 66.1679 64.1132 65.5199 64.1132C49.2587 64.1132 32.9975 64.1132 16.7363 64.1132C10.4435 64.1132 6.91194 60.5924 6.90834 54.3104C6.89754 40.688 6.90474 27.0692 6.91194 13.4468C6.91194 12.7304 6.92994 11.996 7.08474 11.3048C7.55274 9.19876 9.51474 7.75516 11.5703 7.93156C13.6871 8.11156 15.4043 9.76756 15.5411 11.9096C15.6419 13.4648 15.5807 15.0272 15.5807 16.5896C15.5807 28.2896 15.5807 39.9932 15.5807 51.6932C15.5807 54.6704 16.3043 55.3868 19.3031 55.3868C30.5855 55.3868 41.8643 55.3868 53.1467 55.3868C53.6831 55.3868 54.2195 55.3868 55.0583 55.3868L55.0655 55.3832Z" fill="white"/>
<path d="M43.9815 27.4069C43.9815 32.0869 44.0031 36.7669 43.9779 41.4505C43.9419 47.9413 38.8803 52.9381 32.3931 52.9273C25.9131 52.9165 20.8587 47.8945 20.8479 41.4037C20.8263 31.9213 20.8371 22.4425 20.8479 12.9601C20.8479 9.95046 22.6587 7.91646 25.2831 7.91646C27.9363 7.91646 29.6859 9.88206 29.6931 12.9529C29.7075 21.9529 29.6931 30.9565 29.7039 39.9565C29.7039 40.6729 29.6931 41.4073 29.8263 42.1057C30.0819 43.4665 30.9927 44.1865 32.3535 44.2189C33.7143 44.2477 34.6539 43.5565 34.9887 42.2281C35.1471 41.6017 35.1363 40.9213 35.1399 40.2661C35.1507 31.0861 35.1291 21.9025 35.1543 12.7225C35.1651 9.16926 38.3259 6.93726 41.3607 8.32326C43.1787 9.15126 44.0067 10.6417 43.9959 12.6505C43.9707 17.5717 43.9887 22.4929 43.9887 27.4141L43.9815 27.4069Z" fill="white"/>
</g>
<defs>
<clipPath id="clip0_260_7332">
<rect width="72" height="72" fill="white"/>
</clipPath>
</defs>
</svg>
